<?xml version="1.0" encoding="UTF-8" standalone="no"?>
<svg
   xmlns:dc="http://purl.org/dc/elements/1.1/"
   xmlns:cc="http://web.resource.org/cc/"
   xmlns:rdf="http://www.w3.org/1999/02/22-rdf-syntax-ns#"
   xmlns:svg="http://www.w3.org/2000/svg"
   xmlns="http://www.w3.org/2000/svg"
   xmlns:xlink="http://www.w3.org/1999/xlink"
   xmlns:sodipodi="http://inkscape.sourceforge.net/DTD/sodipodi-0.dtd"
   xmlns:inkscape="http://www.inkscape.org/namespaces/inkscape"
   width="1300"
   height="975"
   viewBox="0 0 1300 975"
   id="svg3194"
   sodipodi:version="0.32"
   inkscape:version="0.43"
   sodipodi:docname="haar wavelet.svg"
   sodipodi:docbase="C:\Documents and Settings\Omegatron\My Documents\Wikipedia\Haar wavelet\SVG version">
  <metadata
     id="metadata3327">
    <rdf:RDF>
      <cc:Work
         rdf:about="">
        <dc:format>image/svg+xml</dc:format>
        <dc:type
           rdf:resource="http://purl.org/dc/dcmitype/StillImage" />
      </cc:Work>
    </rdf:RDF>
  </metadata>
  <sodipodi:namedview
     inkscape:window-height="994"
     inkscape:window-width="1680"
     inkscape:pageshadow="2"
     inkscape:pageopacity="0.0"
     borderopacity="1.0"
     bordercolor="#666666"
     pagecolor="#ffffff"
     id="base"
     inkscape:zoom="0.75897436"
     inkscape:cx="637.17149"
     inkscape:cy="518.8102"
     inkscape:window-x="-4"
     inkscape:window-y="-4"
     inkscape:current-layer="svg3194" />
  <desc
     id="desc3196">Produced by GNUPLOT 4.0 patchlevel 0 </desc>
  <defs
     id="defs3198">
    <circle
       id="gpDot"
       r="1" />
    <path
       id="gpPt0"
       style="stroke-width:0.074"
       d="M-1,0 h2 M0,-1 v2" />
    <path
       id="gpPt1"
       style="stroke-width:0.074"
       d="M-1,-1 L1,1 M1,-1 L-1,1" />
    <path
       id="gpPt2"
       style="stroke-width:0.074"
       d="M-1,0 L1,0 M0,-1 L0,1 M-1,-1 L1,1 M-1,1 L1,-1" />
    <rect
       id="gpPt3"
       style="stroke-width:0.074"
       x="-1"
       y="-1"
       width="2"
       height="2" />
    <use
       xlink:href="#gpPt3"
       id="gpPt4"
       style="fill:currentColor; stroke:none" />
    <circle
       id="gpPt5"
       style="stroke-width:0.074"
       cx="0"
       cy="0"
       r="1" />
    <use
       xlink:href="#gpPt5"
       id="gpPt6"
       style="fill:currentColor; stroke:none" />
    <path
       id="gpPt7"
       style="stroke-width:0.074"
       d="M0,-1.33 L-1.33,0.67 L1.33,0.67 z" />
    <use
       xlink:href="#gpPt7"
       id="gpPt8"
       style="fill:currentColor; stroke:none" />
    <use
       xlink:href="#gpPt7"
       id="gpPt9"
       transform="rotate(180)" />
    <use
       xlink:href="#gpPt9"
       id="gpPt10"
       style="fill:currentColor; stroke:none" />
    <use
       xlink:href="#gpPt3"
       id="gpPt11"
       transform="rotate(45)" />
    <use
       xlink:href="#gpPt11"
       id="gpPt12"
       style="fill:currentColor; stroke:none" />
  </defs>
  <g
     style="fill:none;color:black;stroke:currentColor;stroke-width:3;stroke-miterlimit:4;stroke-dasharray:none"
     id="g3214">
    <path
       d="M125,867 L152,867 M1223,867 L1196,867 "
       id="path3216"
       style="stroke-width:3;stroke-miterlimit:4;stroke-dasharray:none" />
    <g
       transform="translate(100,880)"
       style="stroke:none;fill:black;font-family:Times;font-size:36.00;text-anchor:end;stroke-width:3;stroke-miterlimit:4;stroke-dasharray:none"
       id="g3218">
      <text
         id="text3220"
         style="stroke-width:3;stroke-miterlimit:4;stroke-dasharray:none">
        <tspan
           id="tspan3222"
           style="stroke-width:3;stroke-miterlimit:4;stroke-dasharray:none">-1.5</tspan>
      </text>
    </g>
    <path
       d="M125,833 L138,833 M1223,833 L1210,833 M125,799 L138,799 M1223,799 L1210,799 M125,765 L138,765    M1223,765 L1210,765 M125,731 L152,731 M1223,731 L1196,731 "
       id="path3224"
       style="stroke-width:3;stroke-miterlimit:4;stroke-dasharray:none" />
    <g
       transform="translate(100,744)"
       style="stroke:none;fill:black;font-family:Times;font-size:36.00;text-anchor:end;stroke-width:3;stroke-miterlimit:4;stroke-dasharray:none"
       id="g3226">
      <text
         id="text3228"
         style="stroke-width:3;stroke-miterlimit:4;stroke-dasharray:none">
        <tspan
           id="tspan3230"
           style="stroke-width:3;stroke-miterlimit:4;stroke-dasharray:none">-1.0</tspan>
      </text>
    </g>
    <path
       d="M125,697 L138,697 M1223,697 L1210,697 M125,663 L138,663 M1223,663 L1210,663 M125,629 L138,629    M1223,629 L1210,629 M125,595 L152,595 M1223,595 L1196,595 "
       id="path3232"
       style="stroke-width:3;stroke-miterlimit:4;stroke-dasharray:none" />
    <g
       transform="translate(100,608)"
       style="stroke:none;fill:black;font-family:Times;font-size:36.00;text-anchor:end;stroke-width:3;stroke-miterlimit:4;stroke-dasharray:none"
       id="g3234">
      <text
         id="text3236"
         style="stroke-width:3;stroke-miterlimit:4;stroke-dasharray:none">
        <tspan
           id="tspan3238"
           style="stroke-width:3;stroke-miterlimit:4;stroke-dasharray:none">-0.5</tspan>
      </text>
    </g>
    <path
       d="M125,561 L138,561 M1223,561 L1210,561 M125,527 L138,527 M1223,527 L1210,527 M125,493 L138,493    M1223,493 L1210,493 M125,459 L152,459 M1223,459 L1196,459 "
       id="path3240"
       style="stroke-width:3;stroke-miterlimit:4;stroke-dasharray:none" />
    <g
       transform="translate(100,472)"
       style="stroke:none;fill:black;font-family:Times;font-size:36.00;text-anchor:end;stroke-width:3;stroke-miterlimit:4;stroke-dasharray:none"
       id="g3242">
      <text
         id="text3244"
         style="stroke-width:3;stroke-miterlimit:4;stroke-dasharray:none">
        <tspan
           id="tspan3246"
           style="stroke-width:3;stroke-miterlimit:4;stroke-dasharray:none">0.0</tspan>
      </text>
    </g>
    <path
       d="M125,424 L138,424 M1223,424 L1210,424 M125,390 L138,390 M1223,390 L1210,390 M125,356 L138,356    M1223,356 L1210,356 M125,322 L152,322 M1223,322 L1196,322 "
       id="path3248"
       style="stroke-width:3;stroke-miterlimit:4;stroke-dasharray:none" />
    <g
       transform="translate(100,335)"
       style="stroke:none;fill:black;font-family:Times;font-size:36.00;text-anchor:end;stroke-width:3;stroke-miterlimit:4;stroke-dasharray:none"
       id="g3250">
      <text
         id="text3252"
         style="stroke-width:3;stroke-miterlimit:4;stroke-dasharray:none">
        <tspan
           id="tspan3254"
           style="stroke-width:3;stroke-miterlimit:4;stroke-dasharray:none">0.5</tspan>
      </text>
    </g>
    <path
       d="M125,288 L138,288 M1223,288 L1210,288 M125,254 L138,254 M1223,254 L1210,254 M125,220 L138,220    M1223,220 L1210,220 M125,186 L152,186 M1223,186 L1196,186 "
       id="path3256"
       style="stroke-width:3;stroke-miterlimit:4;stroke-dasharray:none" />
    <g
       transform="translate(100,199)"
       style="stroke:none;fill:black;font-family:Times;font-size:36.00;text-anchor:end;stroke-width:3;stroke-miterlimit:4;stroke-dasharray:none"
       id="g3258">
      <text
         id="text3260"
         style="stroke-width:3;stroke-miterlimit:4;stroke-dasharray:none">
        <tspan
           id="tspan3262"
           style="stroke-width:3;stroke-miterlimit:4;stroke-dasharray:none">1.0</tspan>
      </text>
    </g>
    <path
       d="M125,152 L138,152 M1223,152 L1210,152 M125,118 L138,118 M1223,118 L1210,118 M125,84 L138,84    M1223,84 L1210,84 M125,50 L152,50 M1223,50 L1196,50 "
       id="path3264"
       style="stroke-width:3;stroke-miterlimit:4;stroke-dasharray:none" />
    <g
       transform="translate(100,63)"
       style="stroke:none;fill:black;font-family:Times;font-size:36.00;text-anchor:end;stroke-width:3;stroke-miterlimit:4;stroke-dasharray:none"
       id="g3266">
      <text
         id="text3268"
         style="stroke-width:3;stroke-miterlimit:4;stroke-dasharray:none">
        <tspan
           id="tspan3270"
           style="stroke-width:3;stroke-miterlimit:4;stroke-dasharray:none">1.5</tspan>
      </text>
    </g>
    <path
       d="M125,867 L125,854 M125,50 L125,63 M180,867 L180,854 M180,50 L180,63 M235,867 L235,854    M235,50 L235,63 M290,867 L290,854 M290,50 L290,63 M345,867 L345,854 M345,50 L345,63    M400,867 L400,840 M400,50 L400,77 "
       id="path3272"
       style="stroke-width:3;stroke-miterlimit:4;stroke-dasharray:none" />
    <g
       transform="translate(400,934)"
       style="stroke:none;fill:black;font-family:Times;font-size:36.00;text-anchor:middle;stroke-width:3;stroke-miterlimit:4;stroke-dasharray:none"
       id="g3274">
      <text
         id="text3276"
         style="stroke-width:3;stroke-miterlimit:4;stroke-dasharray:none">
        <tspan
           id="tspan3278"
           style="stroke-width:3;stroke-miterlimit:4;stroke-dasharray:none">0</tspan>
      </text>
    </g>
    <path
       d="M454,867 L454,854 M454,50 L454,63 M509,867 L509,854 M509,50 L509,63 M564,867 L564,854    M564,50 L564,63 M619,867 L619,854 M619,50 L619,63 M674,867 L674,854 M674,50 L674,63    M729,867 L729,854 M729,50 L729,63 M784,867 L784,854 M784,50 L784,63 M839,867 L839,854    M839,50 L839,63 M894,867 L894,854 M894,50 L894,63 M949,867 L949,840 M949,50 L949,77    "
       id="path3280"
       style="stroke-width:3;stroke-miterlimit:4;stroke-dasharray:none" />
    <g
       transform="translate(949,934)"
       style="stroke:none;fill:black;font-family:Times;font-size:36.00;text-anchor:middle;stroke-width:3;stroke-miterlimit:4;stroke-dasharray:none"
       id="g3282">
      <text
         id="text3284"
         style="stroke-width:3;stroke-miterlimit:4;stroke-dasharray:none">
        <tspan
           id="tspan3286"
           style="stroke-width:3;stroke-miterlimit:4;stroke-dasharray:none">1</tspan>
      </text>
    </g>
    <path
       d="M1003,867 L1003,854 M1003,50 L1003,63 M1058,867 L1058,854 M1058,50 L1058,63 M1113,867 L1113,854    M1113,50 L1113,63 M1168,867 L1168,854 M1168,50 L1168,63 M1223,867 L1223,854 M1223,50 L1223,63    "
       id="path3288"
       style="stroke-width:3;stroke-miterlimit:4;stroke-dasharray:none" />
  </g>
  <g
     style="fill:none;color:gray;stroke:currentColor;stroke-width:3;stroke-miterlimit:4;stroke-dasharray:none"
     id="g3290">
    <path
       d="M125,459 L1223,459 M400,867 L400,50 "
       id="path3292"
       style="stroke-width:3;stroke-miterlimit:4;stroke-dasharray:none" />
  </g>
  <g
     style="fill:none;color:black;stroke:currentColor;stroke-width:3;stroke-miterlimit:4;stroke-dasharray:none"
     id="g3294">
    <path
       d="M125,867 L1223,867 L1223,50 L125,50 L125,867 "
       id="path3296"
       style="stroke-width:3;stroke-miterlimit:4;stroke-dasharray:none" />
  </g>
  <g
     style="fill:none;color:green;stroke:#0000ff;stroke-width:3;stroke-miterlimit:4;stroke-dasharray:24,24;stroke-opacity:1;stroke-dashoffset:0"
     id="g3302">
    <path
       d="M400,459 L400,186 M674,186 L674,731 M949,731 L949,459 "
       id="path3304"
       style="stroke-width:3;stroke-miterlimit:4;stroke-dasharray:24,24;stroke:#0000ff;stroke-opacity:1;stroke-dashoffset:0" />
  </g>
  <g
     style="fill:none;color:black;stroke:currentColor;stroke-width:3;stroke-miterlimit:4;stroke-dasharray:none"
     id="g3322">
    <path
       d="M125,867 L1223,867 L1223,50 L125,50 L125,867 "
       id="path3324"
       style="stroke-width:3;stroke-miterlimit:4;stroke-dasharray:none" />
  </g>
  <g
     style="fill:none;color:red;stroke:#0000ff;stroke-width:3;stroke-miterlimit:4;stroke-dasharray:none;stroke-opacity:1"
     id="g3298">
    <path
       d="M125,459 L400,459 M400,186 L674,186 M674,731 L949,731 M949,459 L1223,459 "
       id="path3300"
       style="stroke-width:3;stroke-miterlimit:4;stroke-dasharray:none;stroke:#0000ff;stroke-opacity:1" />
  </g>
  <g
     style="fill:#ffffff;color:cyan;stroke:#0000ff;stroke-width:3;stroke-miterlimit:4;stroke-dasharray:none;fill-opacity:1;stroke-opacity:1"
     id="g3314">
    <use
       xlink:href="#gpPt5"
       transform="translate(400,459) scale(13.50)"
       id="use3316"
       style="stroke-width:0.22222222;stroke-miterlimit:4;stroke-dasharray:none;fill:#ffffff;fill-opacity:1;stroke:#0000ff;stroke-opacity:1" />
    <use
       xlink:href="#gpPt5"
       transform="translate(674,186) scale(13.50)"
       id="use3318"
       style="stroke-width:0.22222222;stroke-miterlimit:4;stroke-dasharray:none;fill:#ffffff;fill-opacity:1;stroke:#0000ff;stroke-opacity:1" />
    <use
       xlink:href="#gpPt5"
       transform="translate(949,731) scale(13.50)"
       id="use3320"
       style="stroke-width:0.22222222;stroke-miterlimit:4;stroke-dasharray:none;fill:#ffffff;fill-opacity:1;stroke:#0000ff;stroke-opacity:1" />
  </g>
  <g
     style="fill:#0000ff;color:blue;stroke:currentColor;stroke-width:3;stroke-miterlimit:4;stroke-dasharray:none;fill-opacity:1"
     id="g3306">
    <use
       xlink:href="#gpPt5"
       transform="translate(400,186) scale(13.50)"
       id="use3308"
       style="stroke-width:0.22222222;stroke-miterlimit:4;stroke-dasharray:none;fill:#0000ff;fill-opacity:1" />
    <use
       xlink:href="#gpPt5"
       transform="translate(674,731) scale(13.50)"
       id="use3310"
       style="stroke-width:0.22222222;stroke-miterlimit:4;stroke-dasharray:none;fill:#0000ff;fill-opacity:1" />
    <use
       xlink:href="#gpPt5"
       transform="translate(949,459) scale(13.50)"
       id="use3312"
       style="stroke-width:0.22222222;stroke-miterlimit:4;stroke-dasharray:none;fill:#0000ff;fill-opacity:1" />
  </g>
</svg>
